<?xml version="1.0" encoding="UTF-8"?>
<svg xmlns="http://www.w3.org/2000/svg" width="34" height="34" viewBox="0 0 34 34">
  <defs>
    <filter id="shadow" x="-20%" y="-20%" width="140%" height="140%">
      <feDropShadow dx="0" dy="1.5" stdDeviation="1.5" flood-color="#000000" flood-opacity="0.4" />
    </filter>
    <radialGradient id="grad" cx="50%" cy="50%" r="50%">
      <stop offset="0%" stop-color="#4a4a4a" />
      <stop offset="100%" stop-color="#2a2a2a" />
    </radialGradient>
  </defs>
  
  <path d="M 17.00 1.00 L 20.49 3.96 L 25.00 3.14 L 26.55 7.45 L 30.86 9.00 L 30.04 13.51 L 33.00 17.00 L 30.04 20.49 L 30.86 25.00 L 26.55 26.55 L 25.00 30.86 L 20.49 30.04 L 17.00 33.00 L 13.51 30.04 L 9.00 30.86 L 7.45 26.55 L 3.14 25.00 L 3.96 20.49 L 1.00 17.00 L 3.96 13.51 L 3.14 9.00 L 7.45 7.45 L 9.00 3.14 L 13.51 3.96 Z" fill="url(#grad)" stroke="#1a1a1a" stroke-width="1.5" filter="url(#shadow)"/>
  
  <!-- Indicator line -->
  <line x1="17" y1="17" x2="17" y2="4" stroke="#ffffff" stroke-width="2.5" stroke-linecap="round"/>
</svg>
